<svg xmlns="http://www.w3.org/2000/svg" xmlns:xlink="http://www.w3.org/1999/xlink" width="500" zoomAndPan="magnify" viewBox="0 0 375 374.999991" height="500" preserveAspectRatio="xMidYMid meet" version="1.0"><defs><g/><clipPath id="be5c4c4b1d"><path d="M 122.144531 132.921875 L 253.394531 132.921875 L 253.394531 178.671875 L 122.144531 178.671875 Z M 122.144531 132.921875 " clip-rule="nonzero"/></clipPath></defs><rect x="-37.5" width="450" fill="#ffffff" y="-37.499999" height="449.999989" fill-opacity="1"/><rect x="-37.5" width="450" fill="#ffffff" y="-37.499999" height="449.999989" fill-opacity="1"/><g fill="#000000" fill-opacity="1"><g transform="translate(86.120455, 234.322878)"><g><path d="M 28.34375 1.25 C 23.257812 1.25 18.328125 0.625 13.546875 -0.625 C 8.765625 -1.882812 4.878906 -3.5625 1.890625 -5.65625 L 7.71875 -18.75 C 10.53125 -16.894531 13.789062 -15.398438 17.5 -14.265625 C 21.207031 -13.128906 24.851562 -12.5625 28.4375 -12.5625 C 35.257812 -12.5625 38.671875 -14.265625 38.671875 -17.671875 C 38.671875 -19.460938 37.695312 -20.789062 35.75 -21.65625 C 33.8125 -22.53125 30.6875 -23.445312 26.375 -24.40625 C 21.65625 -25.414062 17.707031 -26.503906 14.53125 -27.671875 C 11.363281 -28.835938 8.640625 -30.707031 6.359375 -33.28125 C 4.085938 -35.851562 2.953125 -39.320312 2.953125 -43.6875 C 2.953125 -47.519531 4 -50.972656 6.09375 -54.046875 C 8.1875 -57.128906 11.3125 -59.566406 15.46875 -61.359375 C 19.632812 -63.160156 24.738281 -64.0625 30.78125 -64.0625 C 34.90625 -64.0625 38.96875 -63.597656 42.96875 -62.671875 C 46.976562 -61.742188 50.507812 -60.382812 53.5625 -58.59375 L 48.09375 -45.390625 C 42.113281 -48.628906 36.3125 -50.25 30.6875 -50.25 C 27.15625 -50.25 24.582031 -49.722656 22.96875 -48.671875 C 21.351562 -47.628906 20.546875 -46.269531 20.546875 -44.59375 C 20.546875 -42.914062 21.5 -41.65625 23.40625 -40.8125 C 25.320312 -39.976562 28.40625 -39.113281 32.65625 -38.21875 C 37.4375 -37.195312 41.394531 -36.101562 44.53125 -34.9375 C 47.675781 -33.78125 50.398438 -31.925781 52.703125 -29.375 C 55.003906 -26.832031 56.15625 -23.378906 56.15625 -19.015625 C 56.15625 -15.253906 55.109375 -11.847656 53.015625 -8.796875 C 50.929688 -5.742188 47.796875 -3.304688 43.609375 -1.484375 C 39.421875 0.335938 34.332031 1.25 28.34375 1.25 Z M 28.34375 1.25 "/></g></g></g><g fill="#000000" fill-opacity="1"><g transform="translate(137.339843, 234.322878)"><g><path d="M 68.8125 -49.4375 C 74.789062 -49.4375 79.5625 -47.640625 83.125 -44.046875 C 86.6875 -40.460938 88.46875 -35.050781 88.46875 -27.8125 L 88.46875 0 L 71.421875 0 L 71.421875 -25.03125 C 71.421875 -28.4375 70.773438 -30.945312 69.484375 -32.5625 C 68.203125 -34.175781 66.394531 -34.984375 64.0625 -34.984375 C 61.488281 -34.984375 59.421875 -34.085938 57.859375 -32.296875 C 56.304688 -30.503906 55.53125 -27.785156 55.53125 -24.140625 L 55.53125 0 L 38.484375 0 L 38.484375 -25.03125 C 38.484375 -31.664062 36.03125 -34.984375 31.125 -34.984375 C 28.5 -34.984375 26.40625 -34.085938 24.84375 -32.296875 C 23.289062 -30.503906 22.515625 -27.785156 22.515625 -24.140625 L 22.515625 0 L 5.46875 0 L 5.46875 -48.625 L 21.71875 -48.625 L 21.71875 -43.515625 C 23.507812 -45.484375 25.644531 -46.960938 28.125 -47.953125 C 30.601562 -48.941406 33.3125 -49.4375 36.25 -49.4375 C 39.65625 -49.4375 42.703125 -48.804688 45.390625 -47.546875 C 48.085938 -46.296875 50.273438 -44.382812 51.953125 -41.8125 C 53.859375 -44.257812 56.273438 -46.140625 59.203125 -47.453125 C 62.140625 -48.773438 65.34375 -49.4375 68.8125 -49.4375 Z M 68.8125 -49.4375 "/></g></g></g><g fill="#000000" fill-opacity="1"><g transform="translate(224.261044, 234.322878)"><g><path d="M 5.46875 -48.625 L 22.515625 -48.625 L 22.515625 0 L 5.46875 0 Z M 13.984375 -54.015625 C 10.878906 -54.015625 8.367188 -54.878906 6.453125 -56.609375 C 4.535156 -58.347656 3.578125 -60.503906 3.578125 -63.078125 C 3.578125 -65.648438 4.535156 -67.800781 6.453125 -69.53125 C 8.367188 -71.269531 10.878906 -72.140625 13.984375 -72.140625 C 17.097656 -72.140625 19.609375 -71.316406 21.515625 -69.671875 C 23.429688 -68.023438 24.390625 -65.914062 24.390625 -63.34375 C 24.390625 -60.644531 23.429688 -58.414062 21.515625 -56.65625 C 19.609375 -54.894531 17.097656 -54.015625 13.984375 -54.015625 Z M 13.984375 -54.015625 "/></g></g></g><g fill="#000000" fill-opacity="1"><g transform="translate(245.519595, 234.322878)"><g><path d="M 5.46875 -66.578125 L 22.515625 -66.578125 L 22.515625 0 L 5.46875 0 Z M 5.46875 -66.578125 "/></g></g></g><g fill="#000000" fill-opacity="1"><g transform="translate(266.778145, 234.322878)"><g><path d="M 55.171875 -24.21875 C 55.171875 -24.101562 55.082031 -22.695312 54.90625 -20 L 19.5625 -20 C 20.28125 -17.488281 21.671875 -15.5625 23.734375 -14.21875 C 25.796875 -12.875 28.378906 -12.203125 31.484375 -12.203125 C 33.816406 -12.203125 35.835938 -12.53125 37.546875 -13.1875 C 39.253906 -13.84375 40.972656 -14.921875 42.703125 -16.421875 L 51.671875 -7.09375 C 46.953125 -1.820312 40.046875 0.8125 30.953125 0.8125 C 25.273438 0.8125 20.28125 -0.265625 15.96875 -2.421875 C 11.664062 -4.578125 8.332031 -7.566406 5.96875 -11.390625 C 3.601562 -15.222656 2.421875 -19.5625 2.421875 -24.40625 C 2.421875 -29.1875 3.570312 -33.472656 5.875 -37.265625 C 8.175781 -41.066406 11.359375 -44.046875 15.421875 -46.203125 C 19.492188 -48.359375 24.070312 -49.4375 29.15625 -49.4375 C 34 -49.4375 38.394531 -48.429688 42.34375 -46.421875 C 46.289062 -44.421875 49.414062 -41.519531 51.71875 -37.71875 C 54.019531 -33.925781 55.171875 -29.425781 55.171875 -24.21875 Z M 29.25 -37.328125 C 26.613281 -37.328125 24.410156 -36.578125 22.640625 -35.078125 C 20.878906 -33.585938 19.765625 -31.554688 19.296875 -28.984375 L 39.203125 -28.984375 C 38.722656 -31.554688 37.601562 -33.585938 35.84375 -35.078125 C 34.082031 -36.578125 31.882812 -37.328125 29.25 -37.328125 Z M 29.25 -37.328125 "/></g></g></g><g clip-path="url(#be5c4c4b1d)"><path fill="#ffd230" d="M 250.675781 147.601562 C 250.617188 147.335938 250.5625 147.074219 250.492188 146.820312 L 250.265625 146.070312 C 250.144531 145.574219 249.921875 145.105469 249.769531 144.644531 C 249.367188 143.742188 248.945312 142.894531 248.433594 142.109375 C 247.898438 141.339844 247.347656 140.601562 246.699219 139.945312 C 245.40625 138.632812 243.890625 137.542969 242.09375 136.742188 L 241.757812 136.582031 L 241.40625 136.453125 C 241.171875 136.367188 240.9375 136.265625 240.695312 136.179688 C 240.203125 136.046875 239.703125 135.851562 239.175781 135.734375 C 238.648438 135.601562 238.101562 135.496094 237.53125 135.402344 C 236.960938 135.308594 236.371094 135.242188 235.738281 135.167969 C 236.652344 134.285156 237.816406 133.691406 239.0625 133.320312 C 239.6875 133.128906 240.332031 133.050781 240.996094 132.964844 C 241.324219 132.925781 241.65625 132.941406 241.988281 132.933594 L 242.496094 132.933594 C 242.664062 132.9375 242.828125 132.964844 242.996094 132.980469 C 245.6875 133.226562 248.308594 134.542969 250.226562 136.527344 C 251.199219 137.511719 251.960938 138.6875 252.546875 139.929688 C 253.113281 141.183594 253.433594 142.53125 253.546875 143.871094 C 253.5625 144.207031 253.554688 144.546875 253.550781 144.875 C 253.546875 145.042969 253.554688 145.207031 253.539062 145.375 C 253.523438 145.539062 253.496094 145.707031 253.476562 145.871094 C 253.425781 146.199219 253.398438 146.523438 253.328125 146.84375 C 253.253906 147.164062 253.171875 147.476562 253.070312 147.789062 C 252.660156 149.023438 252.03125 150.164062 251.125 151.054688 C 251.03125 149.789062 250.90625 148.664062 250.675781 147.601562 Z M 125.113281 147.601562 C 125.171875 147.335938 125.226562 147.074219 125.296875 146.820312 L 125.519531 146.070312 C 125.640625 145.574219 125.863281 145.105469 126.015625 144.644531 C 126.417969 143.742188 126.84375 142.894531 127.355469 142.109375 C 127.886719 141.339844 128.4375 140.601562 129.089844 139.945312 C 130.382812 138.632812 131.898438 137.542969 133.695312 136.742188 L 134.03125 136.582031 L 134.378906 136.453125 C 134.613281 136.367188 134.851562 136.265625 135.09375 136.179688 C 135.582031 136.046875 136.085938 135.851562 136.613281 135.734375 C 137.140625 135.601562 137.683594 135.496094 138.253906 135.402344 C 138.824219 135.308594 139.417969 135.242188 140.050781 135.167969 C 139.132812 134.285156 137.96875 133.691406 136.722656 133.320312 C 136.101562 133.128906 135.453125 133.050781 134.792969 132.964844 C 134.460938 132.925781 134.132812 132.941406 133.796875 132.933594 L 133.292969 132.933594 C 133.125 132.9375 132.960938 132.964844 132.792969 132.980469 C 130.101562 133.226562 127.480469 134.542969 125.558594 136.527344 C 124.589844 137.511719 123.828125 138.6875 123.242188 139.929688 C 122.675781 141.183594 122.351562 142.53125 122.238281 143.871094 C 122.226562 144.207031 122.234375 144.546875 122.234375 144.875 C 122.238281 145.042969 122.234375 145.207031 122.246094 145.375 C 122.261719 145.539062 122.289062 145.707031 122.308594 145.871094 C 122.359375 146.199219 122.390625 146.523438 122.460938 146.84375 C 122.535156 147.164062 122.617188 147.476562 122.71875 147.789062 C 123.128906 149.023438 123.753906 150.164062 124.664062 151.054688 C 124.757812 149.789062 124.882812 148.664062 125.113281 147.601562 Z M 243.863281 138.863281 C 243.46875 139.417969 243.066406 139.964844 242.652344 140.511719 L 241.726562 141.742188 L 241.398438 142.136719 L 240.066406 143.699219 L 239.390625 144.480469 L 238.675781 145.21875 C 237.726562 146.214844 236.769531 147.207031 235.742188 148.125 L 234.207031 149.523438 C 233.683594 149.96875 233.144531 150.402344 232.613281 150.84375 C 231.222656 151.976562 225.332031 158.441406 224.972656 158.875 C 224.625 159.316406 224.261719 159.75 223.90625 160.191406 C 223.546875 160.632812 223.1875 161.074219 222.800781 161.488281 C 219.789062 164.886719 216.300781 167.917969 212.449219 170.46875 C 211.964844 170.785156 211.488281 171.109375 210.996094 171.414062 L 209.492188 172.285156 C 208.496094 172.886719 207.445312 173.382812 206.402344 173.898438 C 204.3125 174.933594 202.117188 175.75 199.890625 176.488281 C 199.339844 176.691406 198.765625 176.816406 198.199219 176.972656 L 196.496094 177.425781 C 195.347656 177.667969 194.199219 177.902344 193.046875 178.109375 C 193.035156 178.113281 193.023438 178.113281 193.011719 178.117188 L 191.273438 178.332031 C 190.6875 178.394531 190.101562 178.5 189.511719 178.519531 L 187.742188 178.621094 L 186.855469 178.671875 C 186.5625 178.683594 186.265625 178.675781 185.96875 178.671875 L 184.195312 178.636719 C 183.898438 178.628906 183.605469 178.632812 183.308594 178.609375 L 182.425781 178.535156 C 181.246094 178.425781 180.0625 178.363281 178.902344 178.140625 L 177.152344 177.847656 C 176.570312 177.753906 176 177.589844 175.425781 177.460938 L 173.703125 177.054688 C 173.132812 176.90625 172.578125 176.703125 172.019531 176.527344 L 170.339844 175.984375 C 169.789062 175.78125 169.246094 175.554688 168.703125 175.339844 C 168.15625 175.125 167.613281 174.90625 167.074219 174.679688 C 166.542969 174.429688 166.023438 174.167969 165.496094 173.910156 L 163.929688 173.136719 C 163.417969 172.859375 162.914062 172.5625 162.414062 172.269531 L 160.917969 171.378906 C 160.421875 171.082031 159.957031 170.734375 159.476562 170.414062 C 158.523438 169.761719 157.5625 169.121094 156.679688 168.378906 L 155.335938 167.304688 L 154.671875 166.761719 C 154.453125 166.578125 154.246094 166.375 154.035156 166.183594 C 153.203125 165.398438 152.347656 164.644531 151.542969 163.839844 L 149.222656 161.351562 L 148.945312 161.046875 C 148.941406 161.039062 148.933594 161.035156 148.925781 161.027344 L 148.667969 160.710938 L 148.132812 160.050781 C 147.777344 159.613281 140.757812 151.773438 139.410156 150.664062 L 138.605469 150.007812 L 138.207031 149.683594 L 137.820312 149.335938 L 136.296875 147.941406 L 134.785156 146.542969 C 134.289062 146.070312 133.828125 145.558594 133.347656 145.066406 L 131.9375 143.574219 L 131.238281 142.824219 L 130.574219 142.042969 C 130.5625 142.027344 130.550781 142.011719 130.539062 141.996094 C 130.148438 141.519531 130.757812 140.875 131.257812 141.238281 C 131.269531 141.246094 131.28125 141.257812 131.289062 141.261719 L 132.101562 141.867188 L 132.941406 142.4375 L 134.605469 143.578125 C 135.160156 143.953125 135.703125 144.34375 136.261719 144.710938 L 137.960938 145.773438 L 139.648438 146.84375 L 140.058594 147.105469 C 140.066406 147.109375 140.074219 147.113281 140.082031 147.117188 L 140.503906 147.355469 L 141.375 147.847656 C 145.957031 150.515625 150.683594 152.851562 155.574219 154.675781 C 165.332031 158.375 175.628906 160.253906 185.949219 160.210938 C 196.261719 160.167969 206.589844 158.300781 216.386719 154.675781 C 226.203125 151.066406 235.445312 145.765625 243.863281 138.863281 " fill-opacity="1" fill-rule="nonzero"/></g><g fill="#000000" fill-opacity="1"><g transform="translate(123.084204, 261.8521)"><g><path d="M 11.390625 0 L 7.640625 -5.78125 L 4.96875 -5.78125 L 4.96875 0 L 2.28125 0 L 2.28125 -16.65625 L 6.984375 -16.65625 C 8.835938 -16.65625 10.320312 -16.179688 11.4375 -15.234375 C 12.5625 -14.285156 13.125 -12.972656 13.125 -11.296875 C 13.125 -10.273438 12.90625 -9.328125 12.46875 -8.453125 C 12.039062 -7.578125 11.363281 -6.898438 10.4375 -6.421875 L 14.484375 0 Z M 4.96875 -8.34375 L 7.34375 -8.34375 C 8.40625 -8.34375 9.175781 -8.632812 9.65625 -9.21875 C 10.144531 -9.8125 10.390625 -10.472656 10.390625 -11.203125 C 10.390625 -11.628906 10.296875 -12.0625 10.109375 -12.5 C 9.929688 -12.9375 9.617188 -13.3125 9.171875 -13.625 C 8.734375 -13.9375 8.15625 -14.09375 7.4375 -14.09375 L 4.96875 -14.09375 Z M 4.96875 -8.34375 "/></g></g></g><g fill="#000000" fill-opacity="1"><g transform="translate(147.567867, 261.8521)"><g><path d="M 13.34375 -16.65625 L 13.34375 -14.09375 L 4.96875 -14.09375 L 4.96875 -9.65625 L 12.421875 -9.65625 L 12.421875 -7.09375 L 4.96875 -7.09375 L 4.96875 -2.5625 L 13.65625 -2.5625 L 13.65625 0 L 2.28125 0 L 2.28125 -16.65625 Z M 13.34375 -16.65625 "/></g></g></g><g fill="#000000" fill-opacity="1"><g transform="translate(171.776954, 261.8521)"><g><path d="M 17 -16.65625 L 17 0.59375 L 16.921875 0.59375 L 4.921875 -11.046875 L 4.984375 0 L 2.28125 0 L 2.28125 -17.21875 L 2.421875 -17.21875 L 14.390625 -5.4375 L 14.34375 -16.65625 Z M 17 -16.65625 "/></g></g></g><g fill="#000000" fill-opacity="1"><g transform="translate(200.242082, 261.8521)"><g><path d="M 2.28125 -16.65625 L 7.015625 -16.65625 C 9.109375 -16.65625 10.835938 -16.242188 12.203125 -15.421875 C 13.566406 -14.597656 14.5625 -13.535156 15.1875 -12.234375 C 15.8125 -10.941406 16.125 -9.5625 16.125 -8.09375 C 16.125 -6.476562 15.742188 -5.054688 14.984375 -3.828125 C 14.234375 -2.597656 13.222656 -1.648438 11.953125 -0.984375 C 10.691406 -0.328125 9.316406 0 7.828125 0 L 2.28125 0 Z M 7.34375 -2.5625 C 8.53125 -2.5625 9.578125 -2.78125 10.484375 -3.21875 C 11.390625 -3.664062 12.097656 -4.316406 12.609375 -5.171875 C 13.117188 -6.035156 13.375 -7.070312 13.375 -8.28125 C 13.375 -9.59375 13.097656 -10.6875 12.546875 -11.5625 C 11.992188 -12.4375 11.285156 -13.078125 10.421875 -13.484375 C 9.554688 -13.898438 8.664062 -14.109375 7.75 -14.109375 L 4.96875 -14.109375 L 4.96875 -2.5625 Z M 7.34375 -2.5625 "/></g></g></g><g fill="#000000" fill-opacity="1"><g transform="translate(226.80801, 261.8521)"><g><path d="M 13.34375 -16.65625 L 13.34375 -14.09375 L 4.96875 -14.09375 L 4.96875 -9.65625 L 12.421875 -9.65625 L 12.421875 -7.09375 L 4.96875 -7.09375 L 4.96875 -2.5625 L 13.65625 -2.5625 L 13.65625 0 L 2.28125 0 L 2.28125 -16.65625 Z M 13.34375 -16.65625 "/></g></g></g><g fill="#000000" fill-opacity="1"><g transform="translate(251.017095, 261.8521)"><g><path d="M 11.390625 0 L 7.640625 -5.78125 L 4.96875 -5.78125 L 4.96875 0 L 2.28125 0 L 2.28125 -16.65625 L 6.984375 -16.65625 C 8.835938 -16.65625 10.320312 -16.179688 11.4375 -15.234375 C 12.5625 -14.285156 13.125 -12.972656 13.125 -11.296875 C 13.125 -10.273438 12.90625 -9.328125 12.46875 -8.453125 C 12.039062 -7.578125 11.363281 -6.898438 10.4375 -6.421875 L 14.484375 0 Z M 4.96875 -8.34375 L 7.34375 -8.34375 C 8.40625 -8.34375 9.175781 -8.632812 9.65625 -9.21875 C 10.144531 -9.8125 10.390625 -10.472656 10.390625 -11.203125 C 10.390625 -11.628906 10.296875 -12.0625 10.109375 -12.5 C 9.929688 -12.9375 9.617188 -13.3125 9.171875 -13.625 C 8.734375 -13.9375 8.15625 -14.09375 7.4375 -14.09375 L 4.96875 -14.09375 Z M 4.96875 -8.34375 "/></g></g></g></svg>